<?xml version="1.0" encoding="UTF-8"?>
<svg version="1.1" xmlns="http://www.w3.org/2000/svg" width="260" height="186">
<path d="M0 0 C85.8 0 171.6 0 260 0 C260 61.38 260 122.76 260 186 C174.2 186 88.4 186 0 186 C0 124.62 0 63.24 0 0 Z " fill="transparent" transform="translate(0,0)"/>
<path d="M0 0 C1.67542976 0.28604898 3.34385343 0.61781233 5 1 C5 3.31 5 5.62 5 8 C5.94875 7.649375 6.8975 7.29875 7.875 6.9375 C11 6 11 6 13 7 C12.67 8.98 12.34 10.96 12 13 C12.66 13 13.32 13 14 13 C13.125 16.875 13.125 16.875 12 18 C10.54176788 18.0270043 9.08339325 18.04639787 7.625 18.0625 C1.71255056 18.59234967 -1.65213918 21.17120619 -6.171875 24.8515625 C-9.06093293 27.04628883 -11.932403 28.42252991 -15.1875 30 C-18.03591501 31.53591018 -18.03591501 31.53591018 -20 34 C-20.64852769 38.33512471 -20.52448082 42.12002455 -20.09375 46.453125 C-20 50 -20 50 -21.23045349 51.68069458 C-23.3565008 53.26579321 -24.58796828 53.46381587 -27.21899414 53.65576172 C-28.51721352 53.76019089 -28.51721352 53.76019089 -29.84165955 53.86672974 C-30.79238846 53.9287558 -31.74311737 53.99078186 -32.72265625 54.0546875 C-34.23231712 54.16911697 -34.23231712 54.16911697 -35.7724762 54.28585815 C-39.18073201 54.53918348 -42.59005601 54.77057697 -46 55 C-48.50376506 55.17579987 -51.00750797 55.35191539 -53.51123047 55.52832031 C-60.80394103 56.03508265 -68.09817293 56.51665488 -75.39300537 56.99157715 C-78.8604285 57.21785971 -82.32766547 57.44696074 -85.79492188 57.67578125 C-92.52977444 58.11985041 -99.2648184 58.56095002 -106 59 C-105.99242676 60.21421631 -105.98485352 61.42843262 -105.97705078 62.67944336 C-105.97828734 67.67672992 -106.3994393 72.59040646 -106.875 77.5625 C-106.95363281 78.46935547 -107.03226562 79.37621094 -107.11328125 80.31054688 C-107.59687606 85.44037187 -108.40012935 90.09955586 -110 95 C-109.38125 95.2475 -108.7625 95.495 -108.125 95.75 C-105.53724008 97.27221172 -104.94407342 98.16777975 -104 101 C-103.625 104.0625 -103.625 104.0625 -104 107 C-108.17018509 111.17018509 -112.60181913 111.15937161 -118.25 111.1875 C-119.53390625 111.20167969 -120.8178125 111.21585937 -122.140625 111.23046875 C-126.83062465 110.95039792 -131.0175582 110.37614169 -134.94140625 107.65234375 C-136.75726389 104.8179977 -136.06167209 102.35797747 -135.5625 99.16015625 C-134.73472548 95.98127214 -133.80602648 94.72678553 -131 93 C-125.57817413 91.84452891 -121.49676389 92.18322143 -116 93 C-115.91435791 92.14768799 -115.82871582 91.29537598 -115.74047852 90.41723633 C-115.41999633 87.23946397 -115.09732543 84.06192346 -114.77319336 80.88452148 C-114.63365036 79.51221395 -114.49496688 78.13981873 -114.35717773 76.76733398 C-114.15837816 74.78866823 -113.95617774 72.8103451 -113.75390625 70.83203125 C-113.63345947 69.64327393 -113.5130127 68.4545166 -113.38891602 67.22973633 C-113.05310829 64.4410355 -112.59910528 61.74231963 -112 59 C-113.26650391 59.23589844 -113.26650391 59.23589844 -114.55859375 59.4765625 C-129.41946406 61.73689919 -129.41946406 61.73689919 -135.25 57.8125 C-138.54391575 52.51870684 -139.37659374 48.13016155 -140 42 C-140.89525391 41.814375 -140.89525391 41.814375 -141.80859375 41.625 C-149.11837277 39.88716249 -155.55442913 37.02586992 -162.24780273 33.69335938 C-166.42173318 31.58614928 -166.42173318 31.58614928 -171 31 C-172.7008433 32.12752433 -172.7008433 32.12752433 -174.375 33.5625 C-177.63105194 36.02354988 -177.63105194 36.02354988 -180.9375 35.8125 C-181.618125 35.544375 -182.29875 35.27625 -183 35 C-182.45912682 31.21388773 -180.88277668 29.44599233 -178 27 C-177.34 27 -176.68 27 -176 27 C-176 26.34 -176 25.68 -176 25 C-177.11375 25.020625 -178.2275 25.04125 -179.375 25.0625 C-183 25 -183 25 -185 24 C-184.125 20.125 -184.125 20.125 -183 19 C-176.47457627 18.76271186 -176.47457627 18.76271186 -174 20 C-174.33 19.34 -174.66 18.68 -175 18 C-175.039992 16.00039988 -175.04346799 13.99952758 -175 12 C-173.68 11.34 -172.36 10.68 -171 10 C-168.56574762 14.96993194 -167.65384002 18.34605369 -168 24 C-166.7625 24.38671875 -166.7625 24.38671875 -165.5 24.78125 C-160.84799222 26.40114557 -156.412175 28.41633491 -151.921875 30.43359375 C-148.00018426 32.17739898 -144.10404097 33.7174872 -140 35 C-140.10699219 33.96359375 -140.21398437 32.9271875 -140.32421875 31.859375 C-140.44617965 30.48966027 -140.56722545 29.11986384 -140.6875 27.75 C-140.76033203 27.06808594 -140.83316406 26.38617188 -140.90820312 25.68359375 C-141.15369765 22.70877772 -141.26469399 20.52013877 -139.89346313 17.82559204 C-137.22421183 15.25201992 -135.30239022 15.35231847 -131.63037109 15.11865234 C-130.98734039 15.07251297 -130.34430969 15.0263736 -129.68179321 14.97883606 C-127.54645822 14.83005075 -125.41044914 14.70807132 -123.2734375 14.5859375 C-121.76808543 14.48603619 -120.26284678 14.38441234 -118.75772095 14.28115845 C-114.77337818 14.01225859 -110.78795876 13.76571664 -106.80187988 13.52410889 C-102.84497553 13.28099442 -98.88932898 13.01915754 -94.93359375 12.7578125 C-90.30612314 12.45293067 -85.67859945 12.14943444 -81.05041504 11.8555603 C-70.94563744 11.21194178 -60.85219308 10.47599016 -50.76254272 9.62313843 C-30.57937565 7.9270908 -30.57937565 7.9270908 -26.22265625 10.88671875 C-23.16734371 13.79168199 -22.05999412 15.99532372 -21.93286133 20.2434082 C-21.9408374 21.04609131 -21.94881348 21.84877441 -21.95703125 22.67578125 C-21.96323486 23.48571533 -21.96943848 24.29564941 -21.97583008 25.13012695 C-21.98380615 25.74718506 -21.99178223 26.36424316 -22 27 C-20.46279297 25.95199219 -20.46279297 25.95199219 -18.89453125 24.8828125 C-17.53402079 23.96329509 -16.1733344 23.04403793 -14.8125 22.125 C-14.13896484 21.66480469 -13.46542969 21.20460938 -12.77148438 20.73046875 C-9.27970017 18.37990182 -6.02102425 16.35855965 -2 15 C-1.93941406 14.00097656 -1.87882813 13.00195312 -1.81640625 11.97265625 C-1.73261719 10.68230469 -1.64882812 9.39195313 -1.5625 8.0625 C-1.44068359 6.13083984 -1.44068359 6.13083984 -1.31640625 4.16015625 C-1 1 -1 1 0 0 Z " fill="#262626" transform="translate(209,56)"/>
<path d="M0 0 C2.91212094 2.66251057 3.17914086 5.21073259 3.4375 9 C3.31015079 12.0679583 2.93673254 13.107789 1.3125 15.875 C-2.39448456 19.28141824 -6.14584859 20.20884589 -11.08203125 20.6328125 C-12.47905273 20.75849609 -12.47905273 20.75849609 -13.90429688 20.88671875 C-14.86400391 20.96535156 -15.82371094 21.04398438 -16.8125 21.125 C-17.79154297 21.21136719 -18.77058594 21.29773438 -19.77929688 21.38671875 C-22.18568978 21.59801179 -24.59246612 21.80220763 -27 22 C-27 22.99 -27 23.98 -27 25 C-26.41992188 24.95359375 -25.83984375 24.9071875 -25.2421875 24.859375 C-19.39807577 24.58935004 -16.52342156 25.26817721 -12 29 C-11 30 -11 30 -10.6875 32.8125 C-11 36 -11 36 -12.62109375 38.08984375 C-15.51060967 40.40999693 -17.76088298 40.99179363 -21.375 41.75 C-22.47585937 41.99234375 -23.57671875 42.2346875 -24.7109375 42.484375 C-29.83411126 43.28753288 -32.82609391 43.73092266 -37.3125 40.9375 C-40 38 -40 38 -41.1875 34.4375 C-41 31 -41 31 -38.6875 28.5625 C-36 27 -36 27 -34 27 C-34 25.35 -34 23.7 -34 22 C-35.36125 22.2475 -35.36125 22.2475 -36.75 22.5 C-40.20764012 22.97983577 -43.63566508 23.16384358 -47.125 23.25 C-48.11757812 23.27578125 -49.11015625 23.3015625 -50.1328125 23.328125 C-53.48647917 22.94432663 -55.29801764 21.99241829 -58 20 C-60.87532596 15.63743647 -61.58749462 12.18953581 -61 7 C-59.0956653 4.14349794 -57.2523735 3.68524235 -54 3 C-52.59434655 2.83861861 -51.18455193 2.71094663 -49.77319336 2.61108398 C-48.94810776 2.55109726 -48.12302216 2.49111053 -47.27293396 2.42930603 C-46.38751419 2.36884598 -45.50209442 2.30838593 -44.58984375 2.24609375 C-43.20582115 2.14833397 -43.20582115 2.14833397 -41.7938385 2.04859924 C-39.83965197 1.91156658 -37.88533717 1.77635268 -35.9309082 1.64282227 C-32.97240618 1.43989427 -30.01453509 1.22915609 -27.05664062 1.01757812 C-4.35074034 -0.5786048 -4.35074034 -0.5786048 0 0 Z " fill="#212121" transform="translate(188,124)"/>
<path d="M0 0 C2.6875 2.375 2.6875 2.375 5 5 C9.46081182 7.97387455 13.76645926 7.38766968 19 7 C22.50829714 6.14284151 22.50829714 6.14284151 25 5 C26.52761069 10.56757284 27.59980681 15.28640424 26 21 C22.43582734 24.92176042 17.87592779 24.65795861 12.9140625 24.94921875 C12.02069183 25.01156204 11.12732117 25.07390533 10.20687866 25.13813782 C8.31265829 25.26777687 6.41798396 25.39092248 4.52294922 25.50805664 C1.66912729 25.6847676 -1.1828512 25.88051074 -4.03515625 26.08007812 C-9.35435334 26.44252598 -14.67489174 26.73980644 -20 27 C-20.74060669 27.03933655 -21.48121338 27.0786731 -22.2442627 27.11920166 C-24.19565955 27.21448493 -26.14868526 27.27459368 -28.1015625 27.33203125 C-29.15939941 27.36659424 -30.21723633 27.40115723 -31.30712891 27.43676758 C-34.759331 26.87684106 -35.91263136 25.75805608 -38 23 C-38.42578125 19.6171875 -38.42578125 19.6171875 -38.3125 15.875 C-38.28800781 14.63492188 -38.26351562 13.39484375 -38.23828125 12.1171875 C-38 9 -38 9 -37 7 C-34.75599319 8.08044772 -32.77630606 9.16155673 -30.75 10.625 C-26.36047184 12.81976408 -22.43642102 12.74286521 -17.84765625 11.34375 C-12.41907191 8.99843982 -10.56513142 6.22892173 -8 1 C-5.11138291 -0.44430855 -3.20352299 -0.37688506 0 0 Z " fill="#2A2A2A" transform="translate(104,30)"/>
<path d="M0 0 C5.28453592 2.94353589 7.97071864 6.43784106 9.83984375 12.1640625 C10.36223876 14.53046726 10.63785594 16.7402088 10.83984375 19.1640625 C10.17984375 19.1640625 9.51984375 19.1640625 8.83984375 19.1640625 C8.61296875 19.8859375 8.38609375 20.6078125 8.15234375 21.3515625 C6.20332903 25.52802261 3.53094623 28.20424758 -0.47265625 30.4765625 C-5.8050984 31.84067561 -9.56889748 31.99029302 -14.41015625 29.4765625 C-18.10031602 26.37347361 -21.85007383 22.99038749 -22.3984375 17.9921875 C-22.56674843 12.14559713 -22.1844096 8.73213387 -18.16015625 4.1640625 C-12.83242224 -0.64389258 -6.9327896 -2.68285167 0 0 Z " fill="#F5F6F6" transform="translate(87.16015625,11.8359375)"/>
<path d="M0 0 C4.24957838 2.09252558 6.42007689 4.92223895 8.26171875 9.24609375 C9.63975351 13.68822933 9.83659251 17.22790227 8.0078125 21.5625 C5.44197001 26.10462247 3.06886995 28.86284062 -2.07421875 30.38671875 C-7.35791665 31.00972194 -11.62337256 31.04619429 -16.51171875 28.82421875 C-20.95132202 24.60118149 -23.26630558 20.92089946 -23.57421875 14.82421875 C-23.35515583 10.38252923 -22.00520166 7.79299618 -19.07421875 4.38671875 C-13.22131369 -0.7694119 -7.68969715 -2.27360161 0 0 Z " fill="#F7F7F7" transform="translate(125.07421875,7.61328125)"/>
<path d="M0 0 C1.67542976 0.28604898 3.34385343 0.61781233 5 1 C5.11804925 7.95272627 4.79929063 14.76847305 4.125 21.6875 C4.00705078 23.03424805 4.00705078 23.03424805 3.88671875 24.40820312 C3.40151238 29.50287002 2.58504233 34.1316557 1 39 C1.61875 39.2475 2.2375 39.495 2.875 39.75 C5.46275992 41.27221172 6.05592658 42.16777975 7 45 C7.375 48.0625 7.375 48.0625 7 51 C2.82981491 55.17018509 -1.60181913 55.15937161 -7.25 55.1875 C-8.53390625 55.20167969 -9.8178125 55.21585938 -11.140625 55.23046875 C-15.83062465 54.95039792 -20.0175582 54.37614169 -23.94140625 51.65234375 C-25.75726389 48.8179977 -25.06167209 46.35797747 -24.5625 43.16015625 C-23.73472548 39.98127214 -22.80602648 38.72678553 -20 37 C-14.57817413 35.84452891 -10.49676389 36.18322143 -5 37 C-4.88406494 35.91468994 -4.76812988 34.82937988 -4.64868164 33.71118164 C-4.21885468 29.69832749 -3.78328604 25.68611412 -3.34594727 21.67407227 C-3.15719524 19.93498495 -2.97001705 18.19572608 -2.78442383 16.45629883 C-2.51793865 13.96128697 -2.24586583 11.46693956 -1.97265625 8.97265625 C-1.89032242 8.19036148 -1.80798859 7.40806671 -1.72315979 6.60206604 C-1.11387171 1.11387171 -1.11387171 1.11387171 0 0 Z " fill="#111111" transform="translate(98,112)"/>
<path d="M0 0 C0.99 0.33 1.98 0.66 3 1 C4.98834962 5.39529916 5.19118486 9.22037853 5 14 C5.82628906 14.2578125 6.65257813 14.515625 7.50390625 14.78125 C12.12928864 16.3936738 16.5343161 18.40702007 20.99023438 20.43359375 C25.27724242 22.34897798 29.46828451 23.77430028 34 25 C35.35350594 25.62469505 36.69934483 26.2716331 38 27 C37.67 28.32 37.34 29.64 37 31 C24.52647971 32.05707799 13.76817141 25.6460142 3 20 C2.48050781 20.44472656 1.96101563 20.88945313 1.42578125 21.34765625 C-4.34133791 26.02744425 -4.34133791 26.02744425 -8 25.875 C-8.99 25.441875 -8.99 25.441875 -10 25 C-9.45912682 21.21388773 -7.88277668 19.44599233 -5 17 C-4.34 17 -3.68 17 -3 17 C-3 16.34 -3 15.68 -3 15 C-4.11375 15.020625 -5.2275 15.04125 -6.375 15.0625 C-10 15 -10 15 -12 14 C-11.125 10.125 -11.125 10.125 -10 9 C-3.47457627 8.76271186 -3.47457627 8.76271186 -1 10 C-1.33 9.34 -1.66 8.68 -2 8 C-2.1875 5 -2.1875 5 -2 2 C-1.34 1.34 -0.68 0.68 0 0 Z " fill="#0D0D0D" transform="translate(36,66)"/>
<path d="M0 0 C1.67542976 0.28604898 3.34385343 0.61781233 5 1 C5 3.31 5 5.62 5 8 C5.94875 7.649375 6.8975 7.29875 7.875 6.9375 C11 6 11 6 13 7 C12.67 8.98 12.34 10.96 12 13 C12.66 13 13.32 13 14 13 C13.125 16.875 13.125 16.875 12 18 C10.54176788 18.0270043 9.08339325 18.04639787 7.625 18.0625 C1.74781647 18.59603155 -1.51832402 21.15460554 -6.0703125 24.7265625 C-13.22153224 30.27590902 -20.6342477 36 -30 36 C-30.33 34.35 -30.66 32.7 -31 31 C-30.35675781 30.74347656 -29.71351563 30.48695312 -29.05078125 30.22265625 C-21.98619534 27.22952927 -16.1032236 23.48945705 -9.9453125 18.98828125 C-7.3187007 17.21514411 -4.98122565 16.02857785 -2 15 C-1.90912109 13.50146484 -1.90912109 13.50146484 -1.81640625 11.97265625 C-1.73261719 10.68230469 -1.64882812 9.39195313 -1.5625 8.0625 C-1.48128906 6.77472656 -1.40007812 5.48695312 -1.31640625 4.16015625 C-1 1 -1 1 0 0 Z " fill="#090909" transform="translate(209,56)"/>
<path d="M0 0 C2.5 1.625 2.5 1.625 4 4 C4.63656938 7.73984509 4.25584708 9.50962644 2.5 12.875 C-0.52915683 15.44978331 -2.20650771 15.74545844 -6.09375 15.484375 C-8 15 -8 15 -10.5 12.875 C-12.25584708 9.50962644 -12.63656938 7.73984509 -12 4 C-9.04906701 -0.67231057 -5.10537385 -1.0252595 0 0 Z " class="eyeball-left" fill="#080808" transform="translate(81,25)"/>
<path d="M0 0 C2.875 1.5 2.875 1.5 5 4 C5.71730941 6.8229596 5.71730941 9.1770404 5 12 C2.42627616 15.02791041 0.84753406 15.86162709 -3.0625 16.5 C-6 16 -6 16 -8.375 14.5 C-10.65416433 10.99359333 -10.81753559 8.07099353 -10 4 C-7.30203057 -0.15072221 -4.80768487 -0.78492814 0 0 Z " fill="#050505" class="eyeball-right" transform="translate(117,20)"/>
<path d="M0 0 C2.60478883 -0.0809313 5.20706653 -0.14045434 7.8125 -0.1875 C8.55048828 -0.21263672 9.28847656 -0.23777344 10.04882812 -0.26367188 C15.50994531 -0.33780469 15.50994531 -0.33780469 18.01171875 1.38671875 C19 3 19 3 19 5 C12.14011227 5.94870788 5.85988773 5.94870788 -1 5 C-0.67 3.35 -0.34 1.7 0 0 Z " fill="#F7F7F7" transform="translate(80,155)"/>
<path d="M0 0 C0.33 0.99 0.66 1.98 1 3 C-10.52164009 6.44419134 -10.52164009 6.44419134 -16 6 C-16 4.68 -16 3.36 -16 2 C-10.60539047 -0.27141454 -5.73842251 -0.20413361 0 0 Z " fill="#F7F7F7" transform="translate(170,155)"/>
</svg>
